<?xml version="1.0" encoding="UTF-8"?>
<svg xmlns="http://www.w3.org/2000/svg" xmlns:xlink="http://www.w3.org/1999/xlink" width="40pt" height="40pt" viewBox="0 0 40 40" version="1.1">
<g id="surface1">
<path style=" stroke:none;fill-rule:nonzero;fill:rgb(100%,99.215686%,99.215686%);fill-opacity:1;" d="M 39.992188 12.257812 C 39.992188 12.253906 39.992188 12.25 39.992188 12.242188 C 39.992188 6.984375 35.726562 2.722656 30.46875 2.722656 C 25.210938 2.722656 20.949219 6.984375 20.949219 12.242188 C 20.949219 17.503906 25.210938 21.765625 30.46875 21.765625 C 31.550781 21.765625 32.585938 21.578125 33.554688 21.246094 C 31.410156 33.535156 21.828125 41.460938 30.710938 34.9375 C 40.5625 27.703125 40 12.535156 39.992188 12.257812 Z M 39.992188 12.257812 "/>
<path style=" stroke:none;fill-rule:nonzero;fill:rgb(100%,99.215686%,99.215686%);fill-opacity:1;" d="M 9.523438 21.765625 C 10.601562 21.765625 11.636719 21.578125 12.605469 21.246094 C 10.460938 33.535156 0.878906 41.460938 9.761719 34.9375 C 19.613281 27.703125 19.054688 12.535156 19.042969 12.257812 C 19.042969 12.253906 19.042969 12.25 19.042969 12.242188 C 19.042969 6.984375 14.78125 2.722656 9.523438 2.722656 C 4.261719 2.722656 0 6.984375 0 12.242188 C 0 17.503906 4.261719 21.765625 9.523438 21.765625 Z M 9.523438 21.765625 "/>
</g>
</svg>
