<?xml version="1.0" encoding="UTF-8"?>
<svg xmlns="http://www.w3.org/2000/svg" xmlns:xlink="http://www.w3.org/1999/xlink" width="40pt" height="40pt" viewBox="0 0 40 40" version="1.1">
<g id="surface1">
<path style=" stroke:none;fill-rule:nonzero;fill:rgb(100%,98.823529%,98.823529%);fill-opacity:1;" d="M 0.0078125 27.757812 C 0.0078125 33.015625 4.273438 37.277344 9.53125 37.277344 C 14.789062 37.277344 19.050781 33.015625 19.050781 27.757812 C 19.050781 22.496094 14.789062 18.234375 9.53125 18.234375 C 8.449219 18.234375 7.414062 18.421875 6.445312 18.753906 C 8.589844 6.464844 18.171875 -1.460938 9.289062 5.0625 C -0.5625 12.296875 0 27.464844 0.0078125 27.742188 C 0.0078125 27.746094 0.0078125 27.75 0.0078125 27.757812 Z M 0.0078125 27.757812 "/>
<path style=" stroke:none;fill-rule:nonzero;fill:rgb(100%,98.823529%,98.823529%);fill-opacity:1;" d="M 20.957031 27.757812 C 20.957031 33.015625 25.21875 37.277344 30.476562 37.277344 C 35.738281 37.277344 40 33.015625 40 27.757812 C 40 22.496094 35.738281 18.234375 30.476562 18.234375 C 29.398438 18.234375 28.363281 18.421875 27.394531 18.753906 C 29.539062 6.464844 39.121094 -1.460938 30.238281 5.0625 C 20.386719 12.296875 20.945312 27.464844 20.957031 27.742188 C 20.957031 27.746094 20.957031 27.75 20.957031 27.757812 Z M 20.957031 27.757812 "/>
</g>
</svg>
